<?xml version="1.0" encoding="UTF-8" standalone="no"?>
<!-- Created with Inkscape (http://www.inkscape.org/) -->

<svg
   version="1.1"
   id="svg2"
   width="42.666668"
   height="42.666668"
   viewBox="0 0 42.666668 42.666668"
   sodipodi:docname="folder_type_hit.ai"
   xmlns:inkscape="http://www.inkscape.org/namespaces/inkscape"
   xmlns:sodipodi="http://sodipodi.sourceforge.net/DTD/sodipodi-0.dtd"
   xmlns="http://www.w3.org/2000/svg"
   xmlns:svg="http://www.w3.org/2000/svg">
  <defs
     id="defs6">
    <clipPath
       clipPathUnits="userSpaceOnUse"
       id="clipPath20">
      <path
         d="M 0,32 H 32 V 0 H 0 Z"
         id="path18" />
    </clipPath>
  </defs>
  <sodipodi:namedview
     id="namedview4"
     pagecolor="#ffffff"
     bordercolor="#000000"
     borderopacity="0.25"
     inkscape:showpageshadow="2"
     inkscape:pageopacity="0.0"
     inkscape:pagecheckerboard="0"
     inkscape:deskcolor="#d1d1d1" />
  <g
     id="g8"
     inkscape:groupmode="layer"
     inkscape:label="folder_type_hit"
     transform="matrix(1.3333333,0,0,-1.3333333,0,42.666667)">
    <g
       id="g10"
       transform="translate(20.4,24.4)">
      <path
         d="M 0,0 H 7.1 V -2.1 H -1.1 Z M -2.2,2.1 -4.3,-2.1 H -16 V -18.9 H 9.2 v 21 z"
         style="fill:#009b98;fill-opacity:1;fill-rule:nonzero;stroke:none"
         id="path12" />
    </g>
    <g
       id="g14">
      <g
         id="g16"
         clip-path="url(#clipPath20)">
        <g
           id="g22"
           transform="translate(19.8483,6.8352)">
          <path
             d="m 0,0 v 0.073 c -0.082,-0.002 -0.161,0.03 -0.219,0.088 -0.059,0.058 -0.091,0.137 -0.089,0.22 v 4.051 c 0,0.47 -0.103,0.827 -0.31,1.071 -0.202,0.24 -0.48,0.403 -0.788,0.462 C -1.75,6.029 -2.104,6.017 -2.443,5.929 -2.82,5.839 -3.179,5.689 -3.508,5.486 l -0.005,0.402 v 1.563 c 0,0.39 -0.065,0.666 -0.195,0.828 -0.13,0.161 -0.355,0.243 -0.681,0.243 H -5.745 V 8.449 c 0.161,0.008 0.298,-0.117 0.305,-0.278 0.001,-0.009 0.001,-0.018 0,-0.027 V 0.377 C -5.433,0.216 -5.557,0.08 -5.719,0.073 -5.727,0.072 -5.736,0.072 -5.745,0.073 V 0 h 2.551 v 0.073 c -0.084,-0.002 -0.164,0.03 -0.224,0.088 -0.059,0.058 -0.091,0.137 -0.088,0.22 v 5.012 c 0.125,0.075 0.26,0.132 0.401,0.171 0.135,0.04 0.278,0.042 0.414,0.006 0.136,-0.042 0.251,-0.133 0.322,-0.256 0.085,-0.135 0.128,-0.34 0.128,-0.615 V 0.377 C -2.238,0.295 -2.27,0.215 -2.33,0.158 -2.389,0.1 -2.468,0.068 -2.551,0.069 V -0.004 H 0 Z"
             style="fill:#ffffff;fill-opacity:1;fill-rule:nonzero;stroke:none"
             id="path24" />
        </g>
        <g
           id="g26"
           transform="translate(27.14,11.6)">
          <path
             d="m 0,0 c -0.07,-0.11 -0.16,-0.19 -0.26,-0.25 -0.12,-0.08 -0.24,-0.13 -0.38,-0.16 -0.14,-0.04 -0.29,-0.06 -0.43,-0.06 -0.15,0 -0.29,0.01 -0.43,0.04 v 1.54 c 0.14,0.04 0.28,0.06 0.43,0.05 0.29,0.01 0.58,-0.07 0.82,-0.24 C -0.02,0.76 0.1,0.56 0.1,0.32 0.1,0.2 0.07,0.1 0,0 m -3.36,-4.71 c -0.04,-0.1 -0.11,-0.19 -0.19,-0.25 -0.09,-0.06 -0.18,-0.1 -0.28,-0.12 -0.11,-0.01 -0.21,-0.02 -0.32,-0.01 -0.27,0.02 -0.55,0.07 -0.81,0.14 -0.32,0.09 -0.65,0.15 -0.98,0.18 h 1.75 v 0.07 c -0.09,0 -0.17,0.03 -0.23,0.09 -0.06,0.06 -0.09,0.14 -0.09,0.22 v 1.84 c 0.08,-0.06 0.18,-0.16 0.31,-0.29 0.14,-0.13 0.26,-0.28 0.38,-0.43 0.12,-0.17 0.23,-0.34 0.32,-0.52 0.09,-0.15 0.15,-0.32 0.18,-0.5 0.02,-0.14 0,-0.28 -0.05,-0.41 z M -6.44,0.88 V 0.86 -0.78 c -0.31,0.3 -0.6,0.63 -0.85,0.99 -0.2,0.28 -0.31,0.61 -0.32,0.95 0,0.1 0.02,0.2 0.05,0.29 0.04,0.1 0.09,0.18 0.16,0.26 0.09,0.08 0.19,0.14 0.3,0.18 0.15,0.06 0.31,0.08 0.47,0.08 0.29,-0.01 0.58,-0.08 0.85,-0.21 0.32,-0.15 0.63,-0.32 0.92,-0.52 H -6.74 V 1.16 c 0.16,0.01 0.3,-0.11 0.3,-0.28 M -4.5,0.86 c 0,0.05 0.01,0.09 0.02,0.13 0.17,-0.11 0.35,-0.23 0.52,-0.35 0.17,-0.13 0.35,-0.24 0.53,-0.36 V -3.2 c 0,-0.2 0.02,-0.4 0.07,-0.59 -0.08,0.15 -0.17,0.3 -0.28,0.44 -0.11,0.14 -0.22,0.27 -0.33,0.39 -0.1,0.11 -0.2,0.21 -0.31,0.3 -0.1,0.09 -0.17,0.15 -0.22,0.19 z m 4.31,0.12 c -0.26,0.17 -0.56,0.27 -0.87,0.26 -0.15,0 -0.29,-0.02 -0.43,-0.06 v 1.4 H -1.56 C -1.59,2.38 -1.68,2.2 -1.81,2.05 -1.96,1.88 -2.14,1.74 -2.33,1.63 -2.54,1.5 -2.77,1.41 -3,1.34 -3.24,1.27 -3.48,1.24 -3.72,1.24 V 1.16 c 0.08,0.01 0.15,-0.03 0.21,-0.08 0.06,-0.06 0.09,-0.14 0.08,-0.22 V 0.47 c -0.16,0.1 -0.31,0.21 -0.46,0.32 -0.15,0.11 -0.3,0.22 -0.46,0.32 0.05,0.04 0.11,0.06 0.16,0.05 v 0.07 h -0.35 c -0.29,0.22 -0.6,0.42 -0.91,0.6 0.25,0 0.49,0.1 0.67,0.28 0.37,0.37 0.37,0.98 0,1.35 L -4.79,3.47 C -4.96,3.65 -5.21,3.76 -5.46,3.75 -5.72,3.76 -5.97,3.65 -6.15,3.47 -6.34,3.29 -6.44,3.05 -6.44,2.79 -6.44,2.67 -6.41,2.54 -6.36,2.43 -6.32,2.31 -6.25,2.21 -6.17,2.12 -6.32,2.17 -6.48,2.19 -6.63,2.19 -6.96,2.21 -7.27,2.06 -7.47,1.8 -7.6,1.61 -7.67,1.39 -7.66,1.16 c 0,-0.37 0.11,-0.73 0.33,-1.02 0.27,-0.37 0.57,-0.71 0.9,-1.02 v -3.51 c 0,-0.16 -0.12,-0.3 -0.28,-0.3 h -0.03 v -0.04 c -0.27,-0.02 -0.47,-0.1 -0.58,-0.23 -0.11,-0.11 -0.17,-0.25 -0.17,-0.4 0,-0.17 0.08,-0.34 0.2,-0.46 0.1,-0.11 0.22,-0.21 0.35,-0.28 h 0.1 c -0.18,0.1 -0.33,0.22 -0.41,0.32 -0.1,0.11 -0.16,0.26 -0.17,0.42 0,0.15 0.07,0.29 0.18,0.39 0.12,0.12 0.34,0.18 0.64,0.18 0.31,0 0.61,-0.03 0.91,-0.09 0.27,-0.06 0.53,-0.11 0.76,-0.17 0.16,-0.04 0.3,-0.07 0.44,-0.1 0.14,-0.02 0.28,-0.04 0.41,-0.06 0.14,-0.02 0.28,-0.01 0.41,0.03 0.12,0.03 0.23,0.09 0.31,0.18 0.15,0.15 0.21,0.37 0.19,0.66 -0.01,0.04 -0.02,0.08 -0.02,0.11 -0.01,0.04 -0.02,0.08 -0.03,0.12 0.12,-0.23 0.32,-0.4 0.55,-0.51 0.25,-0.1 0.52,-0.15 0.78,-0.15 0.28,0 0.55,0.06 0.8,0.16 0.23,0.1 0.45,0.22 0.65,0.36 v 0.1 c -0.11,-0.07 -0.24,-0.13 -0.37,-0.19 -0.1,-0.04 -0.22,-0.05 -0.34,-0.02 -0.11,0.05 -0.2,0.14 -0.25,0.26 -0.07,0.2 -0.11,0.41 -0.1,0.63 v 2.86 c 0.14,-0.04 0.29,-0.05 0.43,-0.05 0.17,0 0.33,0.03 0.48,0.09 0.14,0.05 0.27,0.12 0.39,0.22 0.11,0.08 0.2,0.19 0.27,0.31 0.06,0.11 0.09,0.24 0.09,0.36 0,0.27 -0.13,0.51 -0.35,0.66"
             style="fill:#ffffff;fill-opacity:1;fill-rule:nonzero;stroke:none"
             id="path28" />
        </g>
        <g
           id="g30"
           transform="translate(10,19.552)">
          <path
             d="m 0,0 v -19.104 h 13.643 v 1.405 H 1.406 v 16.293 h 18.189 v -16.293 h -3 v -1.405 H 21 V 0 Z"
             style="fill:#ffffff;fill-opacity:1;fill-rule:nonzero;stroke:none"
             id="path32" />
        </g>
      </g>
    </g>
  </g>
</svg>
